<?xml version="1.0" encoding="UTF-8"?>
<svg xmlns="http://www.w3.org/2000/svg" viewBox="0 0 527.29 527.29">
  <defs>
    <style>
      .cls-1 {
        stroke-linecap: square;
        stroke-width: 2.25px;
      }

      .cls-1, .cls-2 {
        stroke-linejoin: round;
      }

      .cls-1, .cls-2, .cls-3 {
        fill: none;
        stroke: #537a5c;
      }

      .cls-2 {
        stroke-linecap: round;
        stroke-width: 10px;
      }

      .cls-4 {
        fill: #537a5c;
      }

      .cls-3 {
        stroke-width: 15px;
      }
    </style>
  </defs>
  <g id="OUTLINE">
    <polyline class="cls-3" points="387.88 119.87 451.14 156.14 451.15 371.14 263.65 478.65 76.15 371.15 76.14 156.15 263.64 48.65 371.98 110.76"/>
  </g>
  <g id="TREE">
    <path class="cls-2" d="M225.13,451.61c11.83-16.8,16.47-27.9,20.09-38.54,11.38-33.42,7.84-69.65,1.79-103.75-6.17-34.77-17.55-70.52-12.27-106.12,7.89-53.21,54.31-96.96,106.77-105.39"/>
    <path class="cls-2" d="M303.41,452.38c-11.83-16.8-16.47-27.9-20.09-38.54-11.38-33.42-7.84-69.65-1.79-103.75,6.17-34.77,11.13-70.77,5.85-106.37-7.89-53.21-45.78-103.84-79.63-123.03"/>
    <path class="cls-2" d="M278.99,334.43c16.9-19.15,39.58-24.87,62.7-33.31,9.34-3.41,18.71-7.68,25.42-15.01,6.62-7.24,10.07-16.88,11.79-26.54,4.21-23.59-.85-47.46-4.17-70.81-3.07-21.65-6.62-47.2,6.45-66.21,6.9-10.03,17.33-17.55,29.08-20.8,9.97-2.76,23.89-3.29,33.19,2.02"/>
    <path class="cls-2" d="M250.84,336.12c-5.59-6.46-10.71-13-17.99-17.71s-15.36-7.83-23.52-10.46c-9.15-2.95-18.49-5.39-27.29-9.24s-17.18-9.26-22.85-17.02c-6.07-8.3-8.62-18.69-9.53-28.93-1.99-22.48,3.26-44.88,6.23-67.26,2.97-22.38,3.38-46.31-7.34-66.18"/>
    <path class="cls-2" d="M200.68,305.26c-15.55,1.75-34.94,1.56-49.95,6.49-11.84,3.89-22.94,9.94-32.88,17.46-14.31,10.81-26.29,24.69-34.9,40.43"/>
    <path class="cls-2" d="M341.69,301.12c13.37-1.68,26.23,3.39,38.09,8.9,10.68,4.97,21.35,11.41,31.11,18,7.45,5.04,14.27,11.02,20.25,17.73,5.85,6.57,11.89,14.06,14.56,22.5"/>
    <path class="cls-2" d="M287.26,272.52c5.11-13.02,14.7-26.66,26.29-34.5,11.56-7.83,25.26-12.03,39.07-14.03,32.33-4.68,66.03,2.48,94.36,18.75"/>
    <path class="cls-2" d="M234.33,240.09c-6.93-14.77-19.71-28.11-34.63-34.83-10.69-4.81-22.59-6.34-34.31-6.55-31.02-.54-62.8,8.35-86.62,28.23"/>
  </g>
  <g id="LEAVES">
    <path class="cls-4" d="M325.54,174.66c6.97,16.46-1.32,36.5-18.65,43.71-6.48-17.05,1.06-36.2,18.65-43.71Z"/>
    <path class="cls-4" d="M361.42,196.79c-3.89,11.47-15.12,18.27-26.82,15.25,3.42-11.01,14.91-18.68,26.82-15.25Z"/>
    <path class="cls-4" d="M295.24,165.46c-8.08-9.01-6.86-22.92,1.86-30.37,7.64,8.99,7.22,21.79-1.86,30.37Z"/>
    <path class="cls-4" d="M340.05,186.23c-1.26-8.63,5.67-15.61,13.7-16.39-.25,8.23-5.12,14.94-13.7,16.39Z"/>
    <path class="cls-4" d="M315.25,161.65c-2.5-7.92,2.94-15.85,10.53-18.51,1.86,7.81-2.12,15.61-10.53,18.51Z"/>
    <path class="cls-4" d="M319.53,321.14c4.98,11.18,0,23.37-10.67,28.68-4.41-10.23-.84-23.48,10.67-28.68Z"/>
    <path class="cls-4" d="M356.97,326.91c-7.34,3.36-16.07-.89-19.53-8.59,7.62-2.31,15.88.24,19.53,8.59Z"/>
    <path class="cls-4" d="M234.43,347.38c-7.76-1.72-12.83-10.28-10.68-18.58,7.37,3.26,12.3,9.45,10.68,18.58Z"/>
    <path class="cls-4" d="M162.09,321.61c-.39,6.41-8.17,14.46-16.53,12.53,1.06-7.51,8.01-13.57,16.53-12.53Z"/>
    <path class="cls-4" d="M253.32,248.91c-7.47-16.59.31-36.87,17.33-44.21,7.32,16.76-.13,36.09-17.33,44.21Z"/>
    <path class="cls-4" d="M268.07,303.73c-10.31-5.28-15.61-17.84-10.11-28.98,10.34,5.4,14.91,17.17,10.11,28.98Z"/>
    <path class="cls-4" d="M260.79,196.04c-5.63-6.54-4.63-14.94,1.19-21.27,5.82,5.94,4.93,15.06-1.19,21.27Z"/>
    <path class="cls-4" d="M271.7,271.29c-5.15-6.43-4.84-15.43,1.24-21.19,5.61,6.08,4.72,15.43-1.24,21.19Z"/>
    <path class="cls-4" d="M220.58,197.81c-16.53-8.99-22.17-29.28-13.68-45.43,15.77,8.79,22.5,28.41,13.68,45.43Z"/>
    <path class="cls-4" d="M179.34,187.16c-8.4-7.46-6.94-24.34,1.73-30.2,7.04,9.02,7,21.63-1.73,30.2Z"/>
    <path class="cls-4" d="M231.25,156.1c-5.26-6.56-5.68-15.24.69-21.05,5.32,5.98,5.78,15.15-.69,21.05Z"/>
    <path class="cls-4" d="M149.65,294.57c-9.41,7.88-22.75,7.04-30.38-1.97,9.2-8.53,21.49-6.19,30.38,1.97Z"/>
    <path class="cls-4" d="M135.08,237.07c-7.56-3.9-9.63-13.45-5.64-20.43,6.79,4.42,9.64,12.75,5.64,20.43Z"/>
    <path class="cls-4" d="M139.3,276.44c-8.31-2.01-12.96-9.63-11.62-17.82,8.3,2.1,13.3,9.95,11.62,17.82Z"/>
    <path class="cls-4" d="M228.35,294.37c-18.89-.32-33.85-14.29-34.34-32.88,19.07-.31,33.95,15.01,34.34,32.88Z"/>
    <path class="cls-4" d="M177.85,277.75c-10.07-6.38-12.95-19.56-6.63-29.91,9.63,6.44,13.11,19.13,6.63,29.91Z"/>
    <path class="cls-4" d="M218.09,251.98c-11.62-1.2-20.3-12.35-18.58-23.78,11.07,1.55,19.95,11.3,18.58,23.78Z"/>
    <path class="cls-4" d="M184.09,237.36c-8.46-2.54-12.59-10.87-10.48-18.61,7.68,3.19,12.39,10.28,10.48,18.61Z"/>
    <path class="cls-4" d="M409.08,294.81c-8.46,8.49-22.29,8.44-30.67.1,8.67-7.96,21.58-8.93,30.67-.1Z"/>
    <path class="cls-4" d="M412.06,241.66c-5.11,6.54-14.28,7.74-21.38,2.84,5.8-6.43,14.29-7.71,21.38-2.84Z"/>
    <path class="cls-4" d="M404.56,267.11c-1.4,8.13-10.28,12.69-17.94,10.69,2.53-7.37,9.37-12.4,17.94-10.69Z"/>
    <path class="cls-4" d="M333.49,265.93c-.29,18.28-15.63,32.85-34.23,32.6.61-17.71,14.99-32.89,34.23-32.6Z"/>
    <path class="cls-4" d="M362.01,255.16c2.94,11.5-2.97,22.04-14.9,26.47-5.03-18.17,14.38-28.49,14.9-26.47Z"/>
    <path class="cls-4" d="M332.7,243.79c-.89,8.75-7.61,14.92-15.9,14.11,1.12-8.03,7.65-14.45,15.9-14.11Z"/>
    <path class="cls-4" d="M359.1,235.02c-.26,8.61-5.76,14.6-13.47,15.64-1.36-7.92,5.45-16.07,13.47-15.64Z"/>
    <path class="cls-4" d="M398.6,72.9c6.41,7.84-2,24.02-12.02,27.35-4.48-10.97,1.5-23.17,12.02-27.35Z"/>
    <path class="cls-4" d="M428.65,79.36c-3.25,7.64-11.26,11.76-19.16,9.01,2.49-7.71,11.53-11.69,19.16-9.01Z"/>
    <path class="cls-4" d="M453.59,86.9c-4.85,6.53-13.64,7.05-19.57,1.82,5.34-5.11,13.31-6.64,19.57-1.82Z"/>
  </g>
  <g id="APPLE">
    <path class="cls-4" d="M209.92,336.02c3.25,6.45,1.27,13.31-1.43,19.21-5.16,11.27-18.06,15.78-28.86,9.15-10.01-6.14-13.09-22.24-7.85-29.43,3.47-4.75,10.53-7.26,15.64-4.41,2.39,1.33,5.1,1.25,7.63.09,5.03-2.32,12.1-.1,14.87,5.4Z"/>
    <path class="cls-4" d="M211.68,312.65c-5.79,1.56-11.3,3.23-15.11,8.04-1.27,1.49-2.43,3.15-3.41,4.89-1.57,2.68-5.62.72-4.5-2.17,2.63-6.64,8.13-12.99,15.34-14.54,2.3-.59,4.54-.93,6.72-1.13,3-.23,3.81,4.01.95,4.91h0Z"/>
  </g>
  <g id="SNAKE">
    <path class="cls-4" d="M328.1,301.95c20.95-7.34,52.17-1.78,60.04,21.81.65,1.91,1.02,4.07,1.3,6.07,1.33,7.94-3.19,15.57-8.57,20.43-1.53,1.43-3.07,2.56-4.95,3.35-2.94,1.33-6.41.03-7.74-2.91-2.21-5.39,3.63-9.9,6.64-13.42,2.02-2.08,3.05-4.06,3.56-6.73-.04-.31-.13-1.21-.16-1.54-.77-5.42-3.65-10.07-8.03-13.55-8.06-6.36-19.13-8.79-29.34-8.26-3.55.19-7.06.8-10.36,1.85-4.64,1.33-6.92-5.3-2.4-7.09h0Z"/>
    <path class="cls-1" d="M371.82,354.07c-1.73,2.43-2.73,3.81-4.28,6.79-.3.59-1.56,2.12-2.06,2.55-.95.83-2.59,1.82-3.76,2.11"/>
    <path class="cls-4" d="M368.5,361.24c-.38,1.18-.31,2.61-.66,4.25-.41,1.92-1.32,3.72-2.46,5.31,0,0-1.85-1.15-1.85-1.15l.56-.97c.68-1.17,1.24-2.41,1.6-3.73.42-1.66.59-3.61,1.54-5.19,0,0,1.54.63,1.54.63l-.28.85h0Z"/>
    <path class="cls-4" d="M376.73,335.08c-.15-.03-.74-.15-1.52-.11-.75.04-1.32.2-1.55.28-.76.24-1.27.58-1.59.79-.66.44-1.08.88-1.48,1.29-.51.54-.84.98-1.26,1.56-.12.16-.53.73-1.01,1.52-.28.45-.45.73-.64,1.14-.16.34-.34.73-.47,1.24-.07.27-.08.43-.15,1.64-.08,1.33-.07,1.37-.1,1.65-.08.66-.2,1.16-.31,1.58-.15.62-.3,1.07-.45,1.53-.25.75-.37,1.13-.56,1.57-.48,1.1-.79,1.27-.7,1.71.07.36.34.57.85.99.36.29.7.47,1.39.83.39.21.75.37,1.19.58.42.2.63.3.77.36,1.61.68,3.28.23,3.37.2.17-.05.44-.16.97-.4.66-.29,1.7-.74,2.99-1.48,1.29-.73,2.22-1.39,2.57-1.64,1.84-1.33,3.09-2.58,3.57-3.07,1.32-1.37,2.2-2.58,2.61-3.18.82-1.18,1.4-2.24,1.79-3.01.81-1.62,1.23-2.9,1.56-3.93.37-1.16.56-1.74.5-1.92-.8-2.29-9.54-1.21-12.34-1.74Z"/>
  </g>
</svg>